<mxfile host="65bd71144e">
    <diagram id="p9PpmPmUOMGW7d21Oe7A" name="Page-1">
        <mxGraphModel dx="1611" dy="2354" grid="1" gridSize="10" guides="1" tooltips="1" connect="1" arrows="1" fold="1" page="1" pageScale="1" pageWidth="850" pageHeight="1100" math="0" shadow="0">
            <root>
                <mxCell id="0"/>
                <mxCell id="1" parent="0"/>
                <mxCell id="33" value="Software Control" style="whiteSpace=wrap;shadow=1;fontSize=30;fillColor=#d5e8d4;strokeColor=#82b366;strokeWidth=2;dashed=1;fontStyle=1;labelBorderColor=none;labelBackgroundColor=none;html=1;" vertex="1" parent="1">
                    <mxGeometry x="100" y="-990" width="150" height="60" as="geometry"/>
                </mxCell>
                <mxCell id="34" style="edgeStyle=orthogonalEdgeStyle;rounded=0;orthogonalLoop=1;jettySize=auto;html=1;entryX=0;entryY=0.5;entryDx=0;entryDy=0;labelBorderColor=none;fontSize=30;" edge="1" parent="1" source="36" target="41">
                    <mxGeometry relative="1" as="geometry"/>
                </mxCell>
                <mxCell id="35" style="edgeStyle=orthogonalEdgeStyle;rounded=0;orthogonalLoop=1;jettySize=auto;html=1;entryX=0.5;entryY=0;entryDx=0;entryDy=0;labelBorderColor=none;fontSize=30;" edge="1" parent="1" source="36" target="43">
                    <mxGeometry relative="1" as="geometry"/>
                </mxCell>
                <mxCell id="36" value="" style="whiteSpace=wrap;shadow=1;fontSize=30;fillColor=#d5e8d4;strokeColor=#82b366;fontStyle=1;labelBorderColor=none;labelBackgroundColor=none;html=1;" vertex="1" parent="1">
                    <mxGeometry x="960" y="-10" width="280" height="536" as="geometry"/>
                </mxCell>
                <mxCell id="37" value="" style="edgeStyle=orthogonalEdgeStyle;rounded=0;orthogonalLoop=1;jettySize=auto;html=1;labelBorderColor=none;fontSize=30;" edge="1" parent="1" source="38" target="48">
                    <mxGeometry relative="1" as="geometry"/>
                </mxCell>
                <mxCell id="38" value="Enter&lt;br&gt;IR Sensor Module" style="whiteSpace=wrap;shadow=1;fontSize=30;fillColor=#d5e8d4;strokeColor=#82b366;fontStyle=1;labelBorderColor=none;labelBackgroundColor=none;html=1;" vertex="1" parent="1">
                    <mxGeometry x="90" width="240" height="240" as="geometry"/>
                </mxCell>
                <mxCell id="39" style="edgeStyle=orthogonalEdgeStyle;rounded=0;orthogonalLoop=1;jettySize=auto;html=1;entryX=0.5;entryY=0;entryDx=0;entryDy=0;labelBorderColor=none;fontSize=30;" edge="1" parent="1" source="40" target="36">
                    <mxGeometry relative="1" as="geometry"/>
                </mxCell>
                <mxCell id="40" value="Power&lt;br&gt;&amp;nbsp;Supply" style="whiteSpace=wrap;shadow=1;fontSize=30;fillColor=#d5e8d4;strokeColor=#82b366;fontStyle=1;labelBorderColor=none;labelBackgroundColor=none;html=1;" vertex="1" parent="1">
                    <mxGeometry x="984" y="-440" width="232" height="260" as="geometry"/>
                </mxCell>
                <mxCell id="41" value="LCD" style="whiteSpace=wrap;shadow=1;fontSize=30;fillColor=#d5e8d4;strokeColor=#82b366;fontStyle=1;labelBorderColor=none;labelBackgroundColor=none;html=1;" vertex="1" parent="1">
                    <mxGeometry x="1530" y="187.5" width="180" height="141" as="geometry"/>
                </mxCell>
                <mxCell id="42" style="edgeStyle=orthogonalEdgeStyle;rounded=0;orthogonalLoop=1;jettySize=auto;html=1;entryX=0.5;entryY=0;entryDx=0;entryDy=0;labelBorderColor=none;fontSize=30;" edge="1" parent="1" source="43" target="44">
                    <mxGeometry relative="1" as="geometry"/>
                </mxCell>
                <mxCell id="43" value="Relay" style="whiteSpace=wrap;shadow=1;fontSize=30;fillColor=#d5e8d4;strokeColor=#82b366;fontStyle=1;labelBorderColor=none;labelBackgroundColor=none;html=1;" vertex="1" parent="1">
                    <mxGeometry x="1005" y="700" width="190" height="150" as="geometry"/>
                </mxCell>
                <mxCell id="44" value="Light" style="whiteSpace=wrap;shadow=1;fontSize=30;fillColor=#d5e8d4;strokeColor=#82b366;fontStyle=1;labelBorderColor=none;labelBackgroundColor=none;html=1;" vertex="1" parent="1">
                    <mxGeometry x="1010.5" y="980" width="179" height="150" as="geometry"/>
                </mxCell>
                <mxCell id="45" style="edgeStyle=orthogonalEdgeStyle;rounded=0;orthogonalLoop=1;jettySize=auto;html=1;entryX=0;entryY=0.5;entryDx=0;entryDy=0;labelBorderColor=none;fontSize=30;" edge="1" parent="1" source="46" target="50">
                    <mxGeometry relative="1" as="geometry"/>
                </mxCell>
                <mxCell id="46" value="Exit&lt;br&gt;IR Sensor Module" style="whiteSpace=wrap;shadow=1;fontSize=30;fillColor=#d5e8d4;strokeColor=#82b366;fontStyle=1;labelBorderColor=none;labelBackgroundColor=none;html=1;" vertex="1" parent="1">
                    <mxGeometry x="90" y="285" width="240" height="210" as="geometry"/>
                </mxCell>
                <mxCell id="47" style="edgeStyle=orthogonalEdgeStyle;rounded=0;orthogonalLoop=1;jettySize=auto;html=1;entryX=0;entryY=0.25;entryDx=0;entryDy=0;labelBorderColor=none;fontSize=30;" edge="1" parent="1" source="48" target="36">
                    <mxGeometry relative="1" as="geometry"/>
                </mxCell>
                <mxCell id="48" value="Signal&amp;nbsp;&lt;br style=&quot;font-size: 30px;&quot;&gt;Conditioning&lt;br style=&quot;font-size: 30px;&quot;&gt;" style="whiteSpace=wrap;html=1;fontSize=30;fillColor=#d5e8d4;strokeColor=#82b366;shadow=1;fontStyle=1;labelBorderColor=none;labelBackgroundColor=none;" vertex="1" parent="1">
                    <mxGeometry x="540" y="50" width="250" height="140" as="geometry"/>
                </mxCell>
                <mxCell id="49" style="edgeStyle=orthogonalEdgeStyle;rounded=0;orthogonalLoop=1;jettySize=auto;html=1;entryX=0;entryY=0.75;entryDx=0;entryDy=0;labelBorderColor=none;fontSize=30;" edge="1" parent="1" source="50" target="36">
                    <mxGeometry relative="1" as="geometry"/>
                </mxCell>
                <mxCell id="50" value="Signal&amp;nbsp;&lt;br style=&quot;font-size: 30px;&quot;&gt;Conditioning&lt;br style=&quot;font-size: 30px;&quot;&gt;" style="whiteSpace=wrap;html=1;fontSize=30;fillColor=#d5e8d4;strokeColor=#82b366;shadow=1;fontStyle=1;labelBorderColor=none;labelBackgroundColor=none;" vertex="1" parent="1">
                    <mxGeometry x="540" y="320" width="250" height="140" as="geometry"/>
                </mxCell>
                <mxCell id="51" value="&lt;span style=&quot;font-weight: 700&quot;&gt;&lt;font style=&quot;font-size: 40px&quot;&gt;Micro-Controller&lt;/font&gt;&lt;/span&gt;" style="text;html=1;strokeColor=none;fillColor=none;align=center;verticalAlign=middle;whiteSpace=wrap;rounded=0;labelBorderColor=none;fontSize=30;rotation=90;" vertex="1" parent="1">
                    <mxGeometry x="841.45" y="169.06" width="489.5" height="174.38" as="geometry"/>
                </mxCell>
            </root>
        </mxGraphModel>
    </diagram>
</mxfile>